<svg width="32" height="40" viewBox="0 0 32 40" fill="none" xmlns="http://www.w3.org/2000/svg">
<path d="M0.999999 4.75V34.75C0.999999 35.7445 1.39509 36.6984 2.09835 37.4016C2.80161 38.1049 3.75543 38.5 4.75 38.5H27.25C28.2445 38.5 29.1984 38.1049 29.9016 37.4016C30.6049 36.6984 31 35.7445 31 34.75V12.8912C30.9999 12.3917 30.9 11.8971 30.7062 11.4367C30.5124 10.9763 30.2285 10.5592 29.8712 10.21L21.5462 2.06875C20.8457 1.38373 19.9048 1.00012 18.925 0.999999H4.75C3.75543 0.999999 2.80161 1.39509 2.09835 2.09835C1.39509 2.80161 0.999999 3.75543 0.999999 4.75V4.75Z" stroke="#030303" stroke-width="2" stroke-linecap="round" stroke-linejoin="round"/>
</svg>
